<svg width="24" height="24" viewBox="0 0 24 24" fill="none" xmlns="http://www.w3.org/2000/svg">
<path fill-rule="evenodd" clip-rule="evenodd" d="M12 22.5C17.799 22.5 22.5 17.799 22.5 12C22.5 6.20101 17.799 1.5 12 1.5C6.20101 1.5 1.5 6.20101 1.5 12C1.5 17.799 6.20101 22.5 12 22.5Z" fill="#D7002E"/>
<path fill-rule="evenodd" clip-rule="evenodd" d="M12.8475 6H11.16V14.25H12.8475V6ZM13.125 17.625C13.125 18.2463 12.6213 18.75 12 18.75C11.3787 18.75 10.875 18.2463 10.875 17.625C10.875 17.0037 11.3787 16.5 12 16.5C12.6213 16.5 13.125 17.0037 13.125 17.625Z" fill="white"/>
<mask id="mask0" mask-type="alpha" maskUnits="userSpaceOnUse" x="10" y="6" width="4" height="13">
<path fill-rule="evenodd" clip-rule="evenodd" d="M12.8475 6H11.16V14.25H12.8475V6ZM13.125 17.625C13.125 18.2463 12.6213 18.75 12 18.75C11.3787 18.75 10.875 18.2463 10.875 17.625C10.875 17.0037 11.3787 16.5 12 16.5C12.6213 16.5 13.125 17.0037 13.125 17.625Z" fill="white"/>
</mask>
<g mask="url(#mask0)">
</g>
</svg>
